<?xml version="1.0" encoding="UTF-8"?>
<svg width="39px" height="18px" viewBox="0 0 39 18" version="1.1" xmlns="http://www.w3.org/2000/svg" xmlns:xlink="http://www.w3.org/1999/xlink">
    <!-- Generator: Sketch 64 (93537) - https://sketch.com -->
    <title>logo</title>
    <desc>Created with Sketch.</desc>
    <defs>
        <linearGradient x1="89.8418247%" y1="36.2640838%" x2="1.25913241%" y2="59.4591957%" id="linearGradient-1">
            <stop stop-color="#3023AE" offset="0%"></stop>
            <stop stop-color="#4F96F8" offset="100%"></stop>
        </linearGradient>
    </defs>
    <g id="logo" stroke="none" stroke-width="1" fill="none" fill-rule="evenodd">
        <path d="M37.08,12.27 L39.352,9.902 C39.352,9.902 37.674,8.956 35.13,9.444 C32.586,9.914 31.372,11.65 31.372,11.65 L29.79,10.564 L31.834,6.734 C31.834,6.734 29.86,6.316 27.344,6.406 C24.832,6.496 22.286,8.288 22.286,8.288 C22.286,8.288 21.54,6.194 18.124,3.352 C14.716,0.508 10.614,-1.77635684e-15 10.614,-1.77635684e-15 C11.422,1.402 12.962,6.946 12.962,6.946 C12.962,6.946 11.854,5.58 9.926,4.636 C8.38,3.876 6.094,3.68 6.094,3.68 L7.256,8.316 C7.256,8.316 6.464,7.02 4.294,6.312 C2.744,5.804 0.348,6.284 0.348,6.284 L2.89,11.544 L-7.10542736e-15,12.46 L-7.10542736e-15,12.502 L0.468,12.802 L0.468,14.06 L-7.10542736e-15,14.06 L-7.10542736e-15,17.412 L38.458,17.412 L38.458,13.798 L37.138,13.072 L37.08,12.27 Z M3.758,12.418 L0.794,6.624 L1.9,6.576 L4.9,12.52 L3.758,12.418 Z M8.65,13.444 C8.65,13.444 8.284,11.426 7.818,9.206 C7.352,6.984 6.424,4.034 6.424,4.034 L6.888,4.14 C6.888,4.14 7.934,5.792 8.62,8.598 C9.242,11.136 9.344,13.092 9.344,13.092 L8.65,13.444 Z M14.676,13.52 C14.676,13.52 14.126,10.188 13.4,7.084 C12.674,3.982 11.334,0.624 11.334,0.624 L12.216,0.832 C12.216,0.832 13.786,3.43 14.614,6.942 C15.44,10.462 15.578,14.28 15.578,14.28 L14.676,13.52 Z M26.95,13.516 L30.638,6.856 L31.43,6.898 L27.922,13.526 L26.95,13.516 Z M28.184,13.616 L29.048,12.05 L29.63,13.706 L28.184,13.616 Z M34.378,14.664 L33.468,14.534 C33.468,14.534 35.214,12.766 36.334,11.688 C37.458,10.616 38.454,9.812 38.454,9.812 L39.118,9.954 C39.118,9.954 37.41,11.604 36.508,12.462 C35.61,13.312 34.378,14.664 34.378,14.664 Z" id="Shape" fill="url(#linearGradient-1)" fill-rule="nonzero"></path>
    </g>
</svg>